<?xml version="1.0" standalone="no"?>
<!DOCTYPE svg PUBLIC "-//W3C//DTD SVG 1.1//EN" "http://www.w3.org/Graphics/SVG/1.1/DTD/svg11.dtd" >
<svg xmlns="http://www.w3.org/2000/svg">
<metadata></metadata>
<defs>
<font id="helveticaneuecyrbold" horiz-adv-x="1138" >
<font-face units-per-em="2048" ascent="1638" descent="-410" />
<missing-glyph horiz-adv-x="569" />
<glyph horiz-adv-x="2048" />
<glyph horiz-adv-x="2048" />
<glyph unicode="&#xd;" horiz-adv-x="2048" />
<glyph unicode=" "  horiz-adv-x="569" />
<glyph unicode="&#x09;" horiz-adv-x="569" />
<glyph unicode="&#xa0;" horiz-adv-x="569" />
<glyph unicode="!" horiz-adv-x="569" d="M125 0v313h317v-313h-317zM131 1065v393h305v-389l-80 -625h-145z" />
<glyph unicode="&#x22;" horiz-adv-x="948" d="M184 1421h217l-36 -600h-142zM547 1421h217l-39 -600h-139z" />
<glyph unicode="#" d="M6 393v172h215l53 289h-180v174h213l76 393h209l-76 -393h223l76 393h209l-76 -393h182v-174h-215l-53 -289h180v-172h-213l-75 -393h-209l76 393h-226l-73 -393h-209l75 393h-182zM430 565h223l54 289h-224z" />
<glyph unicode="$" d="M-12 444l2 13h291v-19q0 -234 231 -252v437q-80 14 -143 31.5t-128.5 49.5t-109 75t-71 108.5t-27.5 148.5q0 105 38 185t106 129t151.5 76t183.5 34v156h111v-156q220 -5 345.5 -110.5t125.5 -286.5v-29h-273v15q0 96 -50 144.5t-148 59.5v-395l12 -2q82 -13 149 -32 t135.5 -54t115 -80.5t75.5 -115t29 -156.5q0 -201 -142 -325.5t-374 -127.5v-172h-111v172q-112 2 -206.5 33t-166 89.5t-111.5 150t-40 206.5zM303 1069q0 -45 15 -77t50 -53t59 -30t75 -23q7 -2 10 -3v368q-98 -4 -153.5 -53t-55.5 -129zM623 184q103 3 165 61t62 150 q0 82 -55 131t-172 72v-414z" />
<glyph unicode="%" horiz-adv-x="2048" d="M160 1049q0 190 90 293.5t254 103.5q166 0 254 -99.5t88 -287.5q0 -199 -87.5 -304.5t-252.5 -105.5q-167 0 -256.5 103.5t-89.5 296.5zM369 1038q0 -129 30.5 -185t100.5 -56q72 0 103.5 62t31.5 200q0 31 -1 51.5t-4.5 51.5t-12.5 52t-23 41.5t-37.5 30.5t-54.5 10 q-69 0 -101 -62t-32 -196zM522 -55l807 1530h180l-804 -1530h-183zM1212 371q0 190 90 293.5t254 103.5q166 0 254 -99.5t88 -287.5q0 -199 -87.5 -304.5t-251.5 -105.5q-167 0 -257 103.5t-90 296.5zM1421 360q0 -129 30.5 -185t100.5 -56q72 0 104 62t32 200q0 30 -1 51.5 t-5 52t-13 51.5t-23 41t-37.5 30.5t-54.5 10.5q-69 0 -101 -62t-32 -196z" />
<glyph unicode="&#x26;" horiz-adv-x="1402" d="M70 399q0 146 92 257t237 175q-72 88 -104.5 159.5t-32.5 144.5q0 149 111 245.5t282 96.5q164 0 271.5 -98.5t107.5 -248.5q0 -233 -254 -368l189 -230q35 60 53 173h250q-23 -217 -139 -359l297 -346h-355l-121 143q-77 -84 -184 -129t-223 -45q-129 0 -236 49.5 t-174 149t-67 231.5zM352 408q0 -82 60.5 -139.5t146.5 -57.5q130 0 242 127l-252 305q-102 -53 -149.5 -109t-47.5 -126zM520 1145q0 -80 117 -211q82 49 116.5 96t34.5 107q0 59 -37.5 97t-95.5 38t-96.5 -36.5t-38.5 -90.5z" />
<glyph unicode="'" horiz-adv-x="569" d="M174 1421h221l-43 -600h-135z" />
<glyph unicode="(" horiz-adv-x="606" d="M109 543q0 245 69 496.5t199 441.5h241q-119 -237 -173 -454.5t-54 -477.5q0 -448 232 -914h-246q-128 192 -198 432t-70 476z" />
<glyph unicode=")" horiz-adv-x="606" d="M-8 1481h241q132 -203 202.5 -437t70.5 -475q0 -233 -71.5 -501t-196.5 -433h-244q122 249 174.5 461t52.5 477q0 237 -58.5 472t-170.5 436z" />
<glyph unicode="*" horiz-adv-x="833" d="M45 1155l53 158l238 -90l-6 256h172l-8 -256l237 90l60 -158l-242 -80l149 -201l-135 -100l-149 211l-146 -211l-137 100l152 201z" />
<glyph unicode="+" horiz-adv-x="1228" d="M82 428v207h422v428h221v-428h422v-207h-422v-428h-221v428h-422z" />
<glyph unicode="," horiz-adv-x="569" d="M123 0v319h323v-260q0 -179 -78.5 -276t-244.5 -123v143q72 22 106 68.5t39 128.5h-145z" />
<glyph unicode="-" horiz-adv-x="833" d="M109 428v260h616v-260h-616z" />
<glyph unicode="." horiz-adv-x="569" d="M123 0v319h323v-319h-323z" />
<glyph unicode="/" horiz-adv-x="759" d="M-27 -35l559 1528h250l-557 -1528h-252z" />
<glyph unicode="0" d="M43 707q0 107 15.5 206.5t53.5 197.5t96.5 170t151.5 116.5t211 44.5q100 0 181.5 -30.5t138 -85.5t97.5 -124.5t64 -154.5t33.5 -168t10.5 -172q0 -341 -139.5 -536.5t-383.5 -195.5q-249 0 -389.5 194t-140.5 538zM330 692q0 -245 59 -363t182 -118q238 0 238 496 q0 257 -58 376t-182 119q-39 0 -71.5 -12.5t-55.5 -31.5t-41.5 -51.5t-30 -60.5t-20 -72t-12 -73.5t-6 -76.5t-2.5 -69v-63z" />
<glyph unicode="1" d="M154 932v215h36q325 0 381 287h240v-1434h-309v932h-348z" />
<glyph unicode="2" d="M31 0q1 70 13.5 131t30 108t52 94.5t63.5 80t83 75t92 69.5t106 73q16 11 56 37t61.5 41t56.5 41.5t54.5 49t40.5 52.5t30.5 63.5t9.5 69.5q0 94 -56.5 150.5t-148.5 56.5q-114 0 -170.5 -76t-62.5 -235h-279v30q0 244 142 388.5t381 144.5q217 0 352 -121.5t135 -316.5 q0 -67 -15.5 -125t-39 -99.5t-65.5 -84.5t-79.5 -72t-97.5 -70q-20 -14 -75.5 -50.5t-87.5 -59t-76.5 -56.5t-77.5 -68t-56 -69h678v-252h-1050z" />
<glyph unicode="3" d="M29 473v21h280q2 -132 64.5 -203.5t179.5 -71.5q107 0 172.5 60t65.5 157q0 58 -21 100.5t-58.5 66.5t-82.5 35t-99 11q-42 0 -71 -2v205q23 -2 49 -2q250 0 250 180q0 82 -54.5 131t-144.5 49q-102 0 -158 -63t-59 -182h-276q8 223 138.5 351t356.5 128 q212 0 344.5 -109t132.5 -284q0 -105 -54 -181.5t-146 -101.5q120 -29 187 -116.5t67 -213.5q0 -204 -149 -334.5t-384 -130.5q-244 0 -387 135t-143 365z" />
<glyph unicode="4" d="M27 330v268l622 840h262v-867h193v-241h-193v-330h-270v330h-614zM260 571h381v533z" />
<glyph unicode="5" d="M23 424h286q9 -94 74 -152.5t162 -58.5q109 0 178.5 76.5t69.5 197.5t-68 193t-182 72q-72 0 -123 -28t-92 -91h-260l139 788h801v-247h-588l-55 -312q53 53 115.5 77t148.5 24q206 0 331 -128.5t125 -340.5q0 -226 -152 -371.5t-388 -145.5q-225 0 -367.5 116.5 t-154.5 330.5z" />
<glyph unicode="6" d="M49 686q0 353 149 555.5t410 202.5q194 0 316.5 -100.5t148.5 -282.5h-276q-41 162 -193 162q-120 0 -187.5 -105t-84.5 -321q118 161 319 161q196 0 322.5 -133t126.5 -340q1 -222 -143 -366t-367 -144q-255 0 -398 188t-143 523zM358 475q0 -117 64 -190.5t164 -73.5 t165.5 75.5t65.5 190.5t-66 189.5t-167 74.5q-98 0 -162 -75t-64 -191z" />
<glyph unicode="7" d="M76 1159v262h979v-239q-238 -260 -345 -535.5t-128 -646.5h-301q0 167 66.5 390.5t178 433.5t234.5 335h-684z" />
<glyph unicode="8" d="M31 412q0 134 71 226.5t197 123.5q-101 34 -156 111t-55 186q0 167 137 277t344 110q209 0 345.5 -110t136.5 -277q0 -109 -54 -186t-155 -111q126 -31 197 -123.5t71 -226.5q0 -197 -148.5 -317t-392.5 -120t-391 120t-147 317zM322 430q0 -104 68.5 -168.5t178.5 -64.5 q113 0 181.5 63.5t68.5 167.5q0 103 -70.5 166t-185.5 63q-106 0 -173.5 -63.5t-67.5 -163.5zM354 1040q0 -88 59.5 -140t157.5 -52q100 0 158.5 52t58.5 140q0 87 -58.5 137t-160.5 50q-97 0 -156 -51t-59 -136z" />
<glyph unicode="9" d="M35 934q0 220 147.5 366t368.5 146q116 0 208.5 -40.5t152.5 -107t99.5 -158t56.5 -189t17 -203.5q0 -110 -16.5 -214t-57.5 -207t-102.5 -180t-158.5 -124.5t-218 -47.5q-196 0 -323.5 104t-149.5 281h277q34 -163 196 -163q51 0 92 19.5t68.5 55.5t46.5 76t30.5 93.5 t17.5 94.5t10 91q-60 -85 -132.5 -125.5t-175.5 -40.5q-198 0 -326 133.5t-128 339.5zM319 944q0 -114 64 -188t164 -74q98 0 162.5 73.5t64.5 186.5q0 114 -65.5 189t-163.5 75q-97 0 -161.5 -75t-64.5 -187z" />
<glyph unicode=":" horiz-adv-x="569" d="M123 0v319h323v-319h-323zM123 723v319h323v-319h-323z" />
<glyph unicode=";" horiz-adv-x="569" d="M121 723v319h323v-319h-323zM125 0v319h324v-260q0 -178 -79 -275.5t-245 -123.5v143q72 22 106 68.5t39 128.5h-145z" />
<glyph unicode="&#x3c;" horiz-adv-x="1228" d="M82 424v215l1065 410v-250l-741 -267l741 -266v-254z" />
<glyph unicode="=" horiz-adv-x="1228" d="M82 203v229h1065v-229h-1065zM82 631v229h1065v-229h-1065z" />
<glyph unicode="&#x3e;" horiz-adv-x="1228" d="M82 12v254l741 266l-741 267v250l1065 -410v-215z" />
<glyph unicode="?" d="M63 987q14 235 145.5 368.5t371.5 133.5q218 0 351.5 -115.5t133.5 -304.5q0 -81 -32 -151t-79.5 -118.5t-119.5 -97.5q-91 -62 -117.5 -110t-26.5 -154h-272q0 60 1.5 94t9 76.5t22.5 72.5t41.5 64.5t66.5 69.5q14 12 51.5 42t55 46.5t42 45t34.5 59.5t10 67 q0 74 -49 119t-128 45q-206 0 -213 -252h-299zM393 0v313h318v-313h-318z" />
<glyph unicode="@" horiz-adv-x="1638" d="M61 709q0 163 64 308.5t173.5 249.5t262 165t324.5 61q201 0 358.5 -78t245.5 -218t88 -318q0 -140 -58.5 -265t-156.5 -199.5t-207 -74.5q-80 0 -127 40t-47 109q0 25 4 41q-45 -88 -117 -139t-166 -51q-124 0 -201 86.5t-77 226.5q0 130 57 245t152 183t203 68 q168 0 231 -139l29 106h174l-133 -457q-21 -77 -21 -110q0 -38 22 -60t62 -22q65 0 126 60.5t98.5 159t37.5 202.5q0 221 -159.5 359t-415.5 138q-201 0 -364 -88.5t-255 -245t-92 -350.5q0 -183 87 -327.5t243 -224.5t354 -80q152 0 286 46.5t275 149.5l60 -82 q-159 -116 -306.5 -167.5t-320.5 -51.5q-343 0 -561 203q-112 102 -172 243t-60 298zM629 643q0 -83 34 -129.5t95 -46.5q56 0 104.5 48.5t78 118t46.5 138t17 117.5q0 59 -33.5 97t-91.5 38q-56 0 -105 -41.5t-79.5 -102.5t-48 -124.5t-17.5 -112.5z" />
<glyph unicode="A" horiz-adv-x="1402" d="M-18 0l555 1460h329l555 -1460h-336l-114 326h-543l-119 -326h-327zM506 559h387l-193 543z" />
<glyph unicode="B" horiz-adv-x="1441" d="M139 0v1458h690q99 0 181.5 -21.5t147 -64.5t100.5 -114.5t36 -165.5q0 -103 -53 -181.5t-145 -119.5q122 -34 194 -123t72 -234q0 -138 -67 -238t-177 -148t-250 -48h-729zM451 254h321q46 0 81.5 4t72.5 16.5t61 34t39.5 58t15.5 86.5q0 51 -16.5 88t-42 58t-65.5 33 t-76.5 15.5t-85.5 3.5h-305v-397zM451 868h290q50 0 88 6.5t75.5 23t58 52t20.5 88.5t-19.5 88.5t-56 53t-75.5 24t-91 6.5h-290v-342z" />
<glyph unicode="C" horiz-adv-x="1517" d="M86 731q0 213 85 385t250 274.5t382 102.5q261 0 436.5 -147t194.5 -375h-314q-25 120 -109.5 187t-213.5 67q-82 0 -148.5 -28.5t-110.5 -76t-74 -112t-43 -134t-13 -145.5q0 -226 104 -359.5t281 -133.5q144 0 228.5 83.5t104.5 243.5h318q-26 -275 -193.5 -436.5 t-459.5 -161.5q-318 0 -511.5 210t-193.5 556z" />
<glyph unicode="D" horiz-adv-x="1517" d="M143 0v1458h590q340 0 523.5 -188t183.5 -541q0 -351 -183.5 -540t-523.5 -189h-590zM461 266h233q215 0 319.5 119t104.5 344q0 224 -105.5 343.5t-318.5 119.5h-233v-926z" />
<glyph unicode="E" horiz-adv-x="1327" d="M141 0v1458h1094v-262h-776v-317h712v-252h-712v-359h790v-268h-1108z" />
<glyph unicode="F" horiz-adv-x="1214" d="M141 0v1458h1028v-268h-708v-338h616v-254h-616v-598h-320z" />
<glyph unicode="G" horiz-adv-x="1554" d="M82 723q0 167 53 309.5t147 243t227.5 157t289.5 56.5q250 0 421.5 -140t200.5 -370h-309q-23 115 -106 178.5t-211 63.5q-183 0 -287.5 -132.5t-104.5 -365.5q0 -238 106 -370t296 -132q151 0 246.5 91t101.5 239h-326v237h613v-788h-203l-31 166q-85 -103 -191 -152 t-247 -49q-201 0 -357 95.5t-242.5 268t-86.5 394.5z" />
<glyph unicode="H" horiz-adv-x="1517" d="M141 0v1458h320v-549h596v549h319v-1458h-319v629h-596v-629h-320z" />
<glyph unicode="I" horiz-adv-x="604" d="M141 0v1458h322v-1458h-322z" />
<glyph unicode="J" d="M53 449v96h295v-45q0 -34 0.5 -51.5t2.5 -48.5t7 -48t13 -40.5t21.5 -37t32 -26.5t45.5 -19t60 -6q46 0 79 14t50.5 34t27 55.5t11.5 65t2 75.5v991h320v-1001q0 -241 -120 -366.5t-359 -125.5q-231 0 -359.5 120.5t-128.5 363.5z" />
<glyph unicode="K" horiz-adv-x="1478" d="M145 0v1458h316v-606l573 606h404l-572 -575l625 -883h-401l-443 655l-186 -184v-471h-316z" />
<glyph unicode="L" horiz-adv-x="1214" d="M141 0v1458h320v-1184h713v-274h-1033z" />
<glyph unicode="M" horiz-adv-x="1857" d="M141 0v1458h457l340 -1001l332 1001h446v-1458h-301v1036l-358 -1036h-248l-363 1026v-1026h-305z" />
<glyph unicode="N" horiz-adv-x="1517" d="M141 0v1458h326l600 -977v977h307v-1458h-319l-604 979v-979h-310z" />
<glyph unicode="O" horiz-adv-x="1593" d="M78 727q0 347 198 556.5t525 209.5q211 0 373.5 -95.5t252 -270t89.5 -400.5q0 -225 -89.5 -398.5t-252.5 -268.5t-375 -95q-160 0 -294.5 55t-228.5 154t-146 241.5t-52 311.5zM401 733q0 -234 107 -368t293 -136q181 0 286 135.5t105 368.5q0 230 -106 364t-289 134 q-181 0 -288.5 -135.5t-107.5 -362.5z" />
<glyph unicode="P" horiz-adv-x="1366" d="M143 0v1458h629q246 0 390.5 -118t144.5 -351q0 -154 -69.5 -260.5t-184.5 -155.5t-265 -49h-327v-524h-318zM461 776h284q118 0 184 47.5t66 161.5q0 111 -66.5 161t-180.5 50h-287v-420z" />
<glyph unicode="Q" horiz-adv-x="1593" d="M78 725q0 223 91.5 397.5t256 271.5t375.5 97q206 0 368 -96.5t252 -269t90 -392.5q0 -171 -51.5 -314.5t-144.5 -230.5l188 -172l-149 -161l-215 194q-133 -84 -353 -84q-317 0 -512.5 209t-195.5 551zM399 727q0 -230 107 -368t287 -138q71 0 139 29l-146 127l150 160 l158 -144q98 118 98 338q0 229 -106.5 362.5t-290.5 133.5q-181 0 -288.5 -135.5t-107.5 -364.5z" />
<glyph unicode="R" horiz-adv-x="1478" d="M154 0v1458h725q103 0 190 -24t155.5 -72.5t107 -129.5t38.5 -188q0 -127 -61 -222t-170 -136q190 -39 215 -340q1 -11 4.5 -64t7 -84.5t10.5 -77t19 -75.5t28 -45h-331q-17 33 -25.5 82t-13.5 130.5t-6 86.5q-15 154 -76 213t-215 59h-285v-571h-317zM471 803h303 q50 0 87.5 4t76 17t63.5 35t40.5 60.5t15.5 90.5q0 49 -15.5 85t-40 57t-61 33.5t-72 16.5t-80.5 4h-317v-403z" />
<glyph unicode="S" horiz-adv-x="1329" d="M45 487h317q8 -274 330 -274q126 0 198.5 52t72.5 143q0 75 -65 110t-278 95q-37 10 -57 16q-181 52 -251 85q-152 73 -195 204q-19 60 -19 135q0 198 153 317t408 119q118 0 217 -27.5t176.5 -82.5t122 -145.5t46.5 -209.5h-303q-9 106 -79.5 161.5t-197.5 55.5 q-110 0 -172.5 -44t-62.5 -122q0 -27 8.5 -47.5t30 -37.5t44 -28.5t66.5 -25t80 -23t101.5 -26.5t115.5 -31q105 -30 177.5 -63t131.5 -81.5t88 -116.5t29 -157q0 -100 -34 -181t-91.5 -134t-135.5 -89t-162.5 -51.5t-176.5 -15.5q-297 0 -463.5 136.5t-169.5 383.5z" />
<glyph unicode="T" horiz-adv-x="1251" d="M27 1186v272h1198v-272h-439v-1186h-321v1186h-438z" />
<glyph unicode="U" horiz-adv-x="1517" d="M133 586v872h320v-872q0 -88 14 -149.5t48.5 -108.5t96.5 -69.5t154 -22.5q90 0 150 23.5t91.5 72t43.5 108t12 146.5v872h319v-876q0 -313 -150.5 -462t-469.5 -149q-324 0 -476.5 150.5t-152.5 464.5z" />
<glyph unicode="V" horiz-adv-x="1290" d="M-16 1458h333l328 -1024l332 1024h332l-486 -1458h-362z" />
<glyph unicode="W" horiz-adv-x="1933" d="M6 1458h322l233 -991l256 991h301l252 -1003l242 1003h315l-393 -1458h-320l-249 995l-246 -995h-326z" />
<glyph unicode="X" horiz-adv-x="1366" d="M-14 0l514 762l-475 696h372l291 -469l293 469h352l-469 -696l512 -762h-383l-319 506l-324 -506h-364z" />
<glyph unicode="Y" horiz-adv-x="1366" d="M-18 1458h364l340 -584l344 584h354l-542 -897v-561h-316v567z" />
<glyph unicode="Z" horiz-adv-x="1327" d="M41 0v260l784 926h-729v272h1153v-244l-790 -940h817v-274h-1235z" />
<glyph unicode="[" horiz-adv-x="681" d="M143 -352v1820h531v-223h-262v-1374h262v-223h-531z" />
<glyph unicode="\" horiz-adv-x="759" d="M-18 1493h249l560 -1528h-252z" />
<glyph unicode="]" horiz-adv-x="681" d="M8 -129h262v1374h-262v223h531v-1820h-531v223z" />
<glyph unicode="^" horiz-adv-x="1228" d="M137 549l361 872h233l361 -872h-244l-240 590l-227 -590h-244z" />
<glyph unicode="_" horiz-adv-x="1024" d="M0 -154h1024v-102h-1024v102z" />
<glyph unicode="`" horiz-adv-x="530" d="M-98 1479h325l193 -293h-207z" />
<glyph unicode="a" horiz-adv-x="1175" d="M59 289q0 57 16 104t38 78.5t63 57t73.5 39.5t89 26.5t89 17.5t92.5 13q153 20 205.5 43t52.5 84q0 72 -46.5 106.5t-143.5 34.5q-100 0 -147 -36t-62 -126h-273q12 176 136.5 266t353.5 90q71 0 130.5 -7t123 -29.5t107 -59t72 -100t28.5 -148.5v-456q0 -71 1 -102 t9.5 -87t26.5 -98h-295q-16 45 -21 102q-133 -133 -342 -133q-175 0 -276 85.5t-101 234.5zM358 301q0 -66 42.5 -103.5t117.5 -37.5q117 0 187.5 61.5t70.5 173.5v119q-20 -11 -39 -19t-43 -14t-36.5 -8.5t-45 -7.5t-41.5 -6q-103 -17 -140 -35q-73 -36 -73 -123z" />
<glyph unicode="b" horiz-adv-x="1251" d="M109 0v1458h288v-530q124 153 334 153q141 0 245.5 -73.5t156 -195t51.5 -273.5q0 -253 -130 -410.5t-339 -157.5q-220 0 -332 162l2 -133h-276zM387 535q0 -154 68 -242t186 -88q114 0 182 90.5t68 241.5q0 146 -68 233.5t-182 87.5q-117 0 -185.5 -87t-68.5 -236z" />
<glyph unicode="c" horiz-adv-x="1175" d="M74 520q0 257 148 412t394 155q212 0 344.5 -107t151.5 -292h-285q-15 87 -69.5 134.5t-139.5 47.5q-119 0 -185 -90.5t-66 -253.5q0 -158 64 -244.5t181 -86.5q94 0 151.5 54.5t74.5 158.5h280q-28 -205 -161.5 -320t-344.5 -115q-244 0 -391 149.5t-147 397.5z" />
<glyph unicode="d" horiz-adv-x="1251" d="M68 532q0 251 126 402t336 151q99 0 186 -40.5t136 -118.5v532h289v-1458h-275v135q-105 -164 -319 -164q-220 0 -349.5 152t-129.5 409zM360 532q0 -154 66.5 -240.5t183.5 -86.5q120 0 186 85t66 240q0 154 -66.5 240t-185.5 86q-118 0 -184 -85.5t-66 -238.5z" />
<glyph unicode="e" horiz-adv-x="1175" d="M68 522q0 246 150 405.5t380 159.5q240 0 381 -163t141 -441v-28h-758q3 -136 67 -208.5t181 -72.5q79 0 131 37t84 117h279q-49 -170 -181.5 -264.5t-314.5 -94.5q-244 0 -392 152t-148 401zM362 639h463q-10 104 -67 171t-160 67q-97 0 -160.5 -64t-75.5 -174z" />
<glyph unicode="f" horiz-adv-x="681" d="M0 860v197h172v55q0 185 83.5 268.5t279.5 83.5q23 0 48 -1t55.5 -2.5t47.5 -2.5v-213q-90 4 -96 4q-78 0 -103.5 -21t-25.5 -87v-84h207v-197h-205v-860h-291v860h-172z" />
<glyph unicode="g" horiz-adv-x="1251" d="M72 551q0 241 127 387.5t336 146.5q109 0 182.5 -40t132.5 -130v142h274v-946q0 -261 -129 -382.5t-391 -121.5q-452 0 -495 330h288q17 -71 67.5 -103.5t145.5 -32.5q71 0 118 18t71.5 56.5t34 85t10.5 115.5l2 119q-118 -164 -324 -164t-328 141t-122 379zM358 553 q0 -140 66 -222.5t180 -82.5q113 0 178.5 83.5t65.5 227.5q0 141 -65.5 221t-180.5 80t-179.5 -81t-64.5 -226z" />
<glyph unicode="h" horiz-adv-x="1214" d="M113 0v1458h286v-543q125 168 334 168q371 0 371 -391v-692h-291v623q0 109 -39 166t-147 57q-56 0 -97.5 -17.5t-66 -45t-39.5 -69.5t-20 -83t-5 -92v-539h-286z" />
<glyph unicode="i" horiz-adv-x="528" d="M119 0v1057h291v-1057h-291zM119 1212v246h291v-246h-291z" />
<glyph unicode="j" horiz-adv-x="569" d="M-39 -145q25 -2 53 -2q37 0 60.5 7t36.5 16t19.5 32t7.5 41.5t1 56.5v1051h291v-1059q0 -105 -16 -173.5t-55.5 -117t-107.5 -69.5t-173 -21q-58 0 -117 4v234zM139 1208v250h291v-250h-291z" />
<glyph unicode="k" horiz-adv-x="1175" d="M137 0v1458h285v-780l373 379h342l-398 -391l445 -666h-353l-290 469l-119 -111v-358h-285z" />
<glyph unicode="l" horiz-adv-x="528" d="M119 0v1458h291v-1458h-291z" />
<glyph unicode="m" horiz-adv-x="1855" d="M121 0v1057h276v-146q124 174 336 174q220 0 299 -174q127 174 346 174q175 0 268 -100.5t93 -273.5v-711h-295v631q0 50 -5.5 84t-22 67t-51.5 49.5t-89 16.5q-203 0 -203 -254v-594h-291v643q0 47 -6 80.5t-22 64.5t-49 46.5t-82 15.5q-211 0 -211 -277v-573h-291z" />
<glyph unicode="n" horiz-adv-x="1214" d="M113 0v1057h276v-148q131 176 350 176q170 0 268.5 -98t98.5 -280v-707h-295v616q0 43 -3.5 74.5t-15 62.5t-31 50t-52 31t-78.5 12q-122 0 -176 -76t-54 -203v-567h-288z" />
<glyph unicode="o" horiz-adv-x="1251" d="M80 528q0 252 151 405.5t400 153.5q244 0 392 -153.5t148 -405.5q0 -255 -148.5 -408t-395.5 -153t-397 153.5t-150 407.5zM371 528q0 -163 67 -252.5t189 -89.5q120 0 187 90.5t67 253.5q0 158 -68 247t-190 89q-117 0 -184.5 -90t-67.5 -248z" />
<glyph unicode="p" horiz-adv-x="1251" d="M111 -375v1432h274v-131q114 159 328 159t342.5 -154t128.5 -409q0 -249 -126 -399t-333 -150q-213 0 -326 158v-506h-288zM389 526q0 -154 67 -239.5t187 -85.5q117 0 183.5 85t66.5 236q0 155 -67.5 242.5t-184.5 87.5q-119 0 -185.5 -86t-66.5 -240z" />
<glyph unicode="q" horiz-adv-x="1251" d="M68 522q0 256 129 409.5t344 153.5q220 0 325 -159v131h277v-1432h-289v508q-117 -160 -326 -160q-211 0 -335.5 149t-124.5 400zM360 520q0 -151 66 -235t184 -84q119 0 185.5 86.5t66.5 242.5q0 154 -67.5 239t-190.5 85q-114 0 -179 -89.5t-65 -244.5z" />
<glyph unicode="r" horiz-adv-x="796" d="M115 0v1057h276v-195q50 104 137.5 161.5t204.5 57.5q21 0 64 -6v-268q-61 12 -113 12q-73 0 -127.5 -25t-87 -71t-48 -105.5t-15.5 -134.5v-483h-291z" />
<glyph unicode="s" horiz-adv-x="1099" d="M59 344h277q14 -176 225 -176q89 0 141 35.5t52 95.5q0 25 -10.5 44.5t-26 32t-46.5 23.5t-59.5 18.5t-77.5 18.5q-12 3 -18 4q-160 37 -174 40q-167 48 -224 142q-36 59 -36 142q0 155 120.5 239t342.5 84q94 0 173 -18.5t143.5 -57t102 -105.5t40.5 -156h-271 q-12 80 -60.5 112.5t-140.5 32.5q-77 0 -120 -27.5t-43 -76.5q0 -20 5.5 -36t21.5 -28t30.5 -20t47 -17t54.5 -14t70 -15q19 -4 29 -6q53 -11 83.5 -18t80 -22t79 -30t65.5 -40t55.5 -54t33.5 -71t14 -92q0 -166 -129 -262.5t-354 -96.5q-102 0 -188.5 21t-156 64.5 t-110 117.5t-41.5 172z" />
<glyph unicode="t" horiz-adv-x="720" d="M12 860v197h176v319h289v-319h215v-197h-215v-498q0 -31 0.5 -47t4.5 -36.5t12 -30t21.5 -19t35.5 -13t53 -3.5q53 0 88 4v-221q-107 -8 -176 -8q-97 0 -157 14t-100 51t-55.5 98t-15.5 160v549h-176z" />
<glyph unicode="u" horiz-adv-x="1214" d="M113 346v711h293v-604q0 -47 2.5 -77t12.5 -64t28.5 -53.5t52.5 -32.5t82 -13q229 0 229 299v545h289v-1057h-277v150q-124 -181 -344 -181q-174 0 -271 96t-97 281z" />
<glyph unicode="v" horiz-adv-x="1064" d="M10 1057h307l226 -721l225 721h289l-359 -1057h-325z" />
<glyph unicode="w" horiz-adv-x="1667" d="M10 1057h309l197 -719l178 719h281l184 -715l197 715h297l-334 -1057h-299l-189 711l-182 -711h-301z" />
<glyph unicode="x" horiz-adv-x="1099" d="M-4 0l385 557l-350 500h331l189 -283l186 283h322l-348 -494l391 -563h-332l-223 342l-221 -342h-330z" />
<glyph unicode="y" horiz-adv-x="1062" d="M-18 1057h313l242 -719l233 719h301l-389 -1053q-61 -164 -93 -220q-63 -108 -167 -142q-60 -19 -143 -19q-54 0 -195 2v240h141q71 0 109.5 37t38.5 104q0 17 -8 41z" />
<glyph unicode="z" horiz-adv-x="1062" d="M45 0v221l559 613h-516v223h893v-211l-557 -617h594v-229h-973z" />
<glyph unicode="{" horiz-adv-x="681" d="M-2 494v131q122 13 164.5 70.5t42.5 187.5v110q0 255 103.5 358.5t367.5 118.5v-131q-121 -12 -162 -74.5t-41 -207.5v-117q0 -176 -68.5 -267t-236.5 -114q89 -8 150 -39.5t94 -84t47 -114t14 -143.5v-119q0 -70 6.5 -113.5t27 -82t62 -58.5t107.5 -26v-129 q-263 12 -367 115.5t-104 357.5v74q0 49 -1 77.5t-5 62t-12.5 52.5t-23.5 39.5t-37 31.5t-53.5 20t-74.5 14z" />
<glyph unicode="|" horiz-adv-x="456" d="M104 -438v2048h248v-2048h-248z" />
<glyph unicode="}" horiz-adv-x="681" d="M-2 -221q66 6 107.5 26t62 58.5t27 82t6.5 113.5v119q0 82 14 143.5t47 114t94 84t150 39.5q-168 23 -236.5 114t-68.5 267v117q0 145 -41 207.5t-162 74.5v131q264 -15 367.5 -118.5t103.5 -358.5v-110q0 -130 42.5 -187.5t164.5 -70.5v-131q-43 -5 -74.5 -14t-53.5 -20 t-37 -31.5t-23.5 -39.5t-12.5 -52.5t-5 -62t-1 -77.5v-74q0 -254 -104 -357.5t-367 -115.5v129z" />
<glyph unicode="~" horiz-adv-x="1228" d="M55 348q5 54 17 103.5t36 98.5t57.5 84t84 57t112.5 22q33 0 72.5 -8t65 -15.5t74 -24t65.5 -22.5q7 -2 44 -15t56.5 -19.5t52 -15.5t58 -13.5t45.5 -4.5q99 0 123 138h160q-8 -75 -27.5 -135.5t-54.5 -114t-94 -83.5t-138 -30q-44 0 -106.5 14.5t-105.5 28.5 t-121.5 42.5t-98.5 35.5q-68 21 -92 21q-53 0 -84.5 -43.5t-40.5 -100.5h-160z" />
<glyph unicode="&#xab;" horiz-adv-x="909" d="M86 410v268l324 252v-242l-185 -141l185 -146v-249zM489 406v272l320 252v-246l-180 -141l180 -142v-247z" />
<glyph unicode="&#xad;" horiz-adv-x="833" d="M109 428v260h616v-260h-616z" />
<glyph unicode="&#xbb;" horiz-adv-x="909" d="M100 158v239l183 144l-183 141v250l320 -254v-270zM500 154v241l186 144l-186 147v248l323 -258v-270z" />
<glyph unicode="&#x401;" horiz-adv-x="1327" d="M141 0v1458h1094v-262h-776v-317h712v-252h-712v-359h790v-268h-1108zM336 1581v238h272v-238h-272zM764 1581v238h272v-238h-272z" />
<glyph unicode="&#x410;" horiz-adv-x="1402" d="M-18 0l555 1460h329l555 -1460h-336l-114 326h-543l-119 -326h-327zM506 559h387l-193 543z" />
<glyph unicode="&#x411;" horiz-adv-x="1441" d="M145 0v1458h1082v-264h-764v-260h381q112 0 205 -28.5t163.5 -84.5t110 -146t39.5 -206q0 -233 -144.5 -351t-390.5 -118h-682zM463 262h340q121 0 184.5 49.5t63.5 161.5q0 109 -67.5 159t-182.5 50h-338v-420z" />
<glyph unicode="&#x412;" horiz-adv-x="1441" d="M139 0v1458h690q99 0 181.5 -21.5t147 -64.5t100.5 -114.5t36 -165.5q0 -103 -53 -181.5t-145 -119.5q122 -34 194 -123t72 -234q0 -138 -67 -238t-177 -148t-250 -48h-729zM451 254h321q46 0 81.5 4t72.5 16.5t61 34t39.5 58t15.5 86.5q0 51 -16.5 88t-42 58t-65.5 33 t-76.5 15.5t-85.5 3.5h-305v-397zM451 868h290q50 0 88 6.5t75.5 23t58 52t20.5 88.5t-19.5 88.5t-56 53t-75.5 24t-91 6.5h-290v-342z" />
<glyph unicode="&#x413;" horiz-adv-x="1175" d="M141 0v1458h1016v-272h-696v-1186h-320z" />
<glyph unicode="&#x414;" horiz-adv-x="1593" d="M16 272h111q125 167 179 399.5t54 565.5v221h1039v-1186h162v-647h-310v375h-925v-375h-310v647zM483 272h596v926h-401v-24q0 -292 -48 -506t-147 -396z" />
<glyph unicode="&#x415;" horiz-adv-x="1327" d="M141 0v1458h1094v-262h-776v-317h712v-252h-712v-359h790v-268h-1108z" />
<glyph unicode="&#x416;" horiz-adv-x="2158" d="M-18 0l583 862l-530 596h385l506 -596v596h307v-596l506 596h385l-531 -596l584 -862h-397l-389 635l-158 -178v-457h-307v457l-158 178l-391 -635h-395z" />
<glyph unicode="&#x417;" horiz-adv-x="1329" d="M43 487h317q4 -140 90.5 -207t225.5 -67q111 0 181.5 66t70.5 167q0 205 -275 205h-110v217q25 -2 86 -2q131 0 197.5 51.5t66.5 147.5q0 83 -59.5 129.5t-159.5 46.5q-120 0 -191 -56t-80 -161h-303q2 95 33 173t84 131.5t125.5 90t156 53.5t177.5 17q147 0 264.5 -49.5 t185.5 -142t68 -212.5q0 -109 -61.5 -189.5t-159.5 -102.5q121 -19 198.5 -113t77.5 -231q0 -139 -75 -249.5t-205.5 -171.5t-292.5 -61q-297 0 -463.5 136.5t-169.5 383.5z" />
<glyph unicode="&#x418;" horiz-adv-x="1517" d="M141 0v1458h320v-1009h6l549 1009h360v-1458h-319v1012h-6l-549 -1012h-361z" />
<glyph unicode="&#x419;" horiz-adv-x="1517" d="M141 0v1458h320v-1009h6l549 1009h360v-1458h-319v1012h-6l-549 -1012h-361zM426 1851h115q13 -68 72 -101.5t147 -33.5t147 33.5t72 101.5h115q0 -152 -88.5 -223.5t-245.5 -71.5t-245.5 71.5t-88.5 223.5z" />
<glyph unicode="&#x41a;" horiz-adv-x="1478" d="M145 0v1458h316v-606l573 606h404l-572 -575l625 -883h-401l-443 655l-186 -184v-471h-316z" />
<glyph unicode="&#x41b;" horiz-adv-x="1478" d="M27 -4v258q52 -25 112 -25q36 0 61.5 12t49 46t37 105t16.5 179l25 887h1015v-1458h-319v1186h-391l-21 -619q-10 -306 -112 -451t-293 -145q-103 0 -180 25z" />
<glyph unicode="&#x41c;" horiz-adv-x="1857" d="M141 0v1458h457l340 -1001l332 1001h446v-1458h-301v1036l-358 -1036h-248l-363 1026v-1026h-305z" />
<glyph unicode="&#x41d;" horiz-adv-x="1517" d="M141 0v1458h320v-549h596v549h319v-1458h-319v629h-596v-629h-320z" />
<glyph unicode="&#x41e;" horiz-adv-x="1593" d="M78 727q0 347 198 556.5t525 209.5q211 0 373.5 -95.5t252 -270t89.5 -400.5q0 -225 -89.5 -398.5t-252.5 -268.5t-375 -95q-160 0 -294.5 55t-228.5 154t-146 241.5t-52 311.5zM401 733q0 -234 107 -368t293 -136q181 0 286 135.5t105 368.5q0 230 -106 364t-289 134 q-181 0 -288.5 -135.5t-107.5 -362.5z" />
<glyph unicode="&#x41f;" horiz-adv-x="1517" d="M141 0v1458h1235v-1458h-319v1186h-596v-1186h-320z" />
<glyph unicode="&#x420;" horiz-adv-x="1366" d="M143 0v1458h629q246 0 390.5 -118t144.5 -351q0 -154 -69.5 -260.5t-184.5 -155.5t-265 -49h-327v-524h-318zM461 776h284q118 0 184 47.5t66 161.5q0 111 -66.5 161t-180.5 50h-287v-420z" />
<glyph unicode="&#x421;" horiz-adv-x="1517" d="M86 731q0 213 85 385t250 274.5t382 102.5q261 0 436.5 -147t194.5 -375h-314q-25 120 -109.5 187t-213.5 67q-82 0 -148.5 -28.5t-110.5 -76t-74 -112t-43 -134t-13 -145.5q0 -226 104 -359.5t281 -133.5q144 0 228.5 83.5t104.5 243.5h318q-26 -275 -193.5 -436.5 t-459.5 -161.5q-318 0 -511.5 210t-193.5 556z" />
<glyph unicode="&#x422;" horiz-adv-x="1251" d="M27 1186v272h1198v-272h-439v-1186h-321v1186h-438z" />
<glyph unicode="&#x423;" horiz-adv-x="1366" d="M14 1458h355l329 -768l324 768h342l-492 -1073q-104 -229 -208 -320.5t-277 -91.5q-93 0 -178 33v270q78 -32 153 -32q70 0 109 36t39 89q0 18 -3.5 36.5t-13 41.5t-14.5 34.5t-19.5 41t-17.5 34.5z" />
<glyph unicode="&#x424;" horiz-adv-x="1736" d="M78 745q0 260 171.5 410.5t461.5 159.5v143h315v-143q290 -9 461.5 -159.5t171.5 -410.5q0 -269 -172.5 -421.5t-460.5 -163.5v-160h-315v160q-288 11 -460.5 163.5t-172.5 421.5zM387 745q0 -149 86.5 -244.5t237.5 -101.5v684q-157 -6 -240.5 -94t-83.5 -244zM1026 399 q151 6 238.5 101.5t87.5 244.5q0 156 -84 244t-242 94v-684z" />
<glyph unicode="&#x425;" horiz-adv-x="1366" d="M-14 0l514 762l-475 696h372l291 -469l293 469h352l-469 -696l512 -762h-383l-319 506l-324 -506h-364z" />
<glyph unicode="&#x426;" horiz-adv-x="1550" d="M137 0v1458h320v-1186h596v1186h319v-1186h162v-647h-309v375h-1088z" />
<glyph unicode="&#x427;" horiz-adv-x="1366" d="M80 1071v387h319v-391q0 -131 52 -185.5t176 -54.5q94 0 288 33v598h320v-1458h-320v602q-205 -41 -313 -41q-257 0 -389.5 119.5t-132.5 390.5z" />
<glyph unicode="&#x428;" horiz-adv-x="2201" d="M137 0v1458h320v-1186h485v1186h320v-1186h485v1186h319v-1458h-1929z" />
<glyph unicode="&#x429;" horiz-adv-x="2236" d="M137 0v1458h320v-1186h485v1186h320v-1186h485v1186h319v-1186h162v-647h-309v375h-1782z" />
<glyph unicode="&#x42a;" horiz-adv-x="1650" d="M27 1184v274h712v-524h344q150 0 265 -49t184.5 -155.5t69.5 -260.5q0 -233 -144.5 -351t-390.5 -118h-645v1184h-395zM739 262h303q121 0 184.5 49.5t63.5 161.5q0 109 -67.5 159t-182.5 50h-301v-420z" />
<glyph unicode="&#x42b;" horiz-adv-x="1857" d="M141 0v1458h318v-524h266q112 0 205 -28.5t163.5 -84.5t110 -146t39.5 -206q0 -233 -144 -351t-390 -118h-568zM459 262h225q121 0 184.5 49.5t63.5 161.5q0 109 -67.5 159t-182.5 50h-223v-420zM1399 0v1458h319v-1458h-319z" />
<glyph unicode="&#x42c;" horiz-adv-x="1366" d="M137 0v1458h318v-524h344q112 0 205 -28.5t163.5 -84.5t110 -146t39.5 -206q0 -233 -144.5 -351t-390.5 -118h-645zM455 262h303q121 0 184.5 49.5t63.5 161.5q0 109 -67.5 159t-182.5 50h-301v-420z" />
<glyph unicode="&#x42d;" horiz-adv-x="1517" d="M78 514h319q28 -136 111 -207t215 -71q156 0 256.5 106t122.5 291h-535v252h525q-15 72 -44 131.5t-73.5 107t-110 74.5t-145.5 27q-120 0 -202.5 -59t-113.5 -165h-317q30 216 203 354t424 138q217 0 382 -102.5t250 -274.5t85 -385q0 -346 -193.5 -556t-511.5 -210 q-279 0 -445 147t-202 402z" />
<glyph unicode="&#x42e;" horiz-adv-x="2084" d="M141 0v1458h320v-559h235q44 275 218.5 434.5t435.5 159.5q293 0 475 -211.5t182 -554.5q0 -225 -82.5 -398.5t-232.5 -268.5t-344 -95q-278 0 -457.5 184t-202.5 490h-227v-639h-320zM1008 733q0 -235 91 -368.5t251 -135.5q155 0 244 135t89 369q0 231 -90 364.5 t-247 133.5q-155 0 -246.5 -135t-91.5 -363z" />
<glyph unicode="&#x42f;" horiz-adv-x="1478" d="M6 0l453 590q-152 39 -243 146.5t-91 275.5q0 113 40.5 200.5t110.5 140t159 79t192 26.5h714v-1458h-317v571h-190l-426 -571h-402zM438 1010q0 -52 15.5 -90.5t40.5 -60.5t63.5 -35t76 -17t87.5 -4h303v403h-317q-45 0 -80.5 -4t-72 -16.5t-61 -33.5t-40 -57t-15.5 -85 z" />
<glyph unicode="&#x430;" horiz-adv-x="1175" d="M59 289q0 57 16 104t38 78.5t63 57t73.5 39.5t89 26.5t89 17.5t92.5 13q153 20 205.5 43t52.5 84q0 72 -46.5 106.5t-143.5 34.5q-100 0 -147 -36t-62 -126h-273q12 176 136.5 266t353.5 90q71 0 130.5 -7t123 -29.5t107 -59t72 -100t28.5 -148.5v-456q0 -71 1 -102 t9.5 -87t26.5 -98h-295q-16 45 -21 102q-133 -133 -342 -133q-175 0 -276 85.5t-101 234.5zM358 301q0 -66 42.5 -103.5t117.5 -37.5q117 0 187.5 61.5t70.5 173.5v119q-20 -11 -39 -19t-43 -14t-36.5 -8.5t-45 -7.5t-41.5 -6q-103 -17 -140 -35q-73 -36 -73 -123z" />
<glyph unicode="&#x431;" horiz-adv-x="1251" d="M104 618q0 76 3 138.5t14 139.5t29 138t50 126t76 113t108.5 87.5t145.5 60.5q44 12 124 21t128.5 21.5t61.5 39.5h276q-8 -56 -27 -100.5t-43 -76t-62 -55.5t-73.5 -38t-88 -25t-94 -16.5t-103.5 -11.5q-95 -9 -165 -46.5t-111.5 -97.5t-63.5 -127t-31 -151h6 q21 57 54 107t82.5 95t122 71t159.5 26q207 0 346 -150t139 -391q0 -250 -148.5 -398.5t-402.5 -148.5q-110 0 -199 38t-146.5 101t-96 148.5t-54.5 175t-16 186.5zM395 516q0 -158 64 -243t178 -85q112 0 176 86t64 244q0 154 -64.5 239t-179.5 85q-109 0 -173.5 -86.5 t-64.5 -239.5z" />
<glyph unicode="&#x432;" horiz-adv-x="1175" d="M106 0v1057h609q97 0 171 -26.5t120.5 -88t46.5 -151.5q0 -75 -39 -131.5t-105 -86.5q87 -25 140 -90t53 -168q0 -150 -101.5 -232.5t-257.5 -82.5h-637zM393 188h215q42 0 73 5t60 19t44.5 43.5t15.5 72.5q0 44 -16.5 73.5t-48 43.5t-64 19t-76.5 5h-203v-281zM393 633 h193q36 0 63.5 4.5t54 16.5t40.5 37.5t14 62.5t-13.5 61.5t-39.5 36t-53.5 16t-65.5 4.5h-193v-239z" />
<glyph unicode="&#x433;" horiz-adv-x="927" d="M115 0v1057h798v-223h-510v-834h-288z" />
<glyph unicode="&#x434;" horiz-adv-x="1286" d="M14 223h127q50 99 91.5 287.5t41.5 361.5v185h844v-834h137v-534h-272v311h-696v-311h-273v534zM426 223h403v619h-284v-27q0 -153 -38 -323.5t-81 -268.5z" />
<glyph unicode="&#x435;" horiz-adv-x="1175" d="M68 522q0 246 150 405.5t380 159.5q240 0 381 -163t141 -441v-28h-758q3 -136 67 -208.5t181 -72.5q79 0 131 37t84 117h279q-49 -170 -181.5 -264.5t-314.5 -94.5q-244 0 -392 152t-148 401zM362 639h463q-10 104 -67 171t-160 67q-97 0 -160.5 -64t-75.5 -174z" />
<glyph unicode="&#x436;" horiz-adv-x="1683" d="M-6 0l407 655l-360 402h332l332 -420v420h274v-420l332 420h331l-366 -408l414 -649h-342l-256 444l-113 -127v-317h-274v317l-113 127l-256 -444h-342z" />
<glyph unicode="&#x437;" horiz-adv-x="1099" d="M45 344h277q7 -86 66 -131t159 -45q94 0 141 38.5t47 102.5q0 69 -45 108.5t-137 39.5h-113v182h76q99 0 150 30.5t51 106.5q0 51 -43 85t-123 34q-92 0 -140.5 -32.5t-60.5 -112.5h-270q3 89 43.5 156t108 105.5t149 57t176.5 18.5q442 0 442 -284q0 -87 -59.5 -155 t-130.5 -79v-4q42 -5 78 -19t71 -41.5t55.5 -76.5t20.5 -115q0 -168 -133 -256t-360 -88q-102 0 -188.5 21t-156 64.5t-110 117.5t-41.5 172z" />
<glyph unicode="&#x438;" horiz-adv-x="1214" d="M115 0v1057h278v-715l377 715h330v-1057h-279v715l-377 -715h-329z" />
<glyph unicode="&#x439;" horiz-adv-x="1214" d="M115 0v1057h278v-715l377 715h330v-1057h-279v715l-377 -715h-329zM272 1458h115q13 -68 72 -101.5t147 -33.5t147 33.5t72 101.5h115q0 -152 -88.5 -223.5t-245.5 -71.5t-245.5 71.5t-88.5 223.5z" />
<glyph unicode="&#x43a;" horiz-adv-x="1175" d="M119 0v1057h284v-418l388 418h342l-410 -410l467 -647h-352l-306 455l-129 -131v-324h-284z" />
<glyph unicode="&#x43b;" horiz-adv-x="1214" d="M16 -12v231q50 -10 82 -10q64 0 96 53t35 166l17 629h848v-1057h-289v834h-279l-12 -373q-2 -48 -3.5 -75.5t-6 -74.5t-11 -76t-19.5 -69.5t-29.5 -65.5t-42 -53t-57.5 -43.5t-75.5 -26t-95.5 -10.5q-34 0 -85 6.5t-73 14.5z" />
<glyph unicode="&#x43c;" horiz-adv-x="1478" d="M115 0v1057h422l198 -768h8l199 768h422v-1057h-274v803h-7l-206 -803h-275l-207 803h-6v-803h-274z" />
<glyph unicode="&#x43d;" horiz-adv-x="1214" d="M115 0v1057h288v-383h408v383h289v-1057h-289v444h-408v-444h-288z" />
<glyph unicode="&#x43e;" horiz-adv-x="1251" d="M80 528q0 252 151 405.5t400 153.5q244 0 392 -153.5t148 -405.5q0 -255 -148.5 -408t-395.5 -153t-397 153.5t-150 407.5zM371 528q0 -163 67 -252.5t189 -89.5q120 0 187 90.5t67 253.5q0 158 -68 247t-190 89q-117 0 -184.5 -90t-67.5 -248z" />
<glyph unicode="&#x43f;" horiz-adv-x="1214" d="M115 0v1057h985v-1057h-289v834h-408v-834h-288z" />
<glyph unicode="&#x440;" horiz-adv-x="1251" d="M111 -375v1432h274v-131q114 159 328 159t342.5 -154t128.5 -409q0 -249 -126 -399t-333 -150q-213 0 -326 158v-506h-288zM389 526q0 -154 67 -239.5t187 -85.5q117 0 183.5 85t66.5 236q0 155 -67.5 242.5t-184.5 87.5q-119 0 -185.5 -86t-66.5 -240z" />
<glyph unicode="&#x441;" horiz-adv-x="1175" d="M74 520q0 257 148 412t394 155q212 0 344.5 -107t151.5 -292h-285q-15 87 -69.5 134.5t-139.5 47.5q-119 0 -185 -90.5t-66 -253.5q0 -158 64 -244.5t181 -86.5q94 0 151.5 54.5t74.5 158.5h280q-28 -205 -161.5 -320t-344.5 -115q-244 0 -391 149.5t-147 397.5z" />
<glyph unicode="&#x442;" horiz-adv-x="1024" d="M20 834v223h986v-223h-349v-834h-288v834h-349z" />
<glyph unicode="&#x443;" horiz-adv-x="1062" d="M-18 1057h313l242 -719l233 719h301l-389 -1053q-61 -164 -93 -220q-63 -108 -167 -142q-60 -19 -143 -19q-54 0 -195 2v240h141q71 0 109.5 37t38.5 104q0 17 -8 41z" />
<glyph unicode="&#x444;" horiz-adv-x="1732" d="M74 545q0 250 110 396t299 146q87 0 148 -31t86 -77h6v479h287v-479h6q25 46 85.5 77t147.5 31q189 0 299.5 -146t110.5 -396q0 -92 -13.5 -173.5t-45.5 -156t-79.5 -128t-120.5 -85t-165 -31.5q-63 0 -125 29.5t-94 69.5h-6v-445h-287v445h-6q-32 -40 -94 -69.5 t-125 -29.5q-92 0 -165 31.5t-120.5 85t-79.5 128t-45.5 156t-13.5 173.5zM360 539q0 -70 9.5 -128t31.5 -108.5t64 -79t100 -28.5q62 0 106 30t52 72v455q-19 58 -66 85t-100 27q-197 0 -197 -325zM1010 297q8 -42 51.5 -72t105.5 -30q58 0 100 28.5t64 79t31.5 108.5 t9.5 128q0 325 -196 325q-53 0 -100 -27t-66 -85v-455z" />
<glyph unicode="&#x445;" horiz-adv-x="1099" d="M-4 0l385 557l-350 500h331l189 -283l186 283h322l-348 -494l391 -563h-332l-223 342l-221 -342h-330z" />
<glyph unicode="&#x446;" horiz-adv-x="1234" d="M109 0v1057h288v-834h391v834h289v-834h133v-534h-272v311h-829z" />
<glyph unicode="&#x447;" horiz-adv-x="1175" d="M82 735v322h289v-262q0 -118 33 -162.5t128 -44.5q50 0 128 10t114 20v439h289v-1057h-289v416q-191 -47 -338 -47q-172 0 -263 97t-91 269z" />
<glyph unicode="&#x448;" horiz-adv-x="1726" d="M115 0v1057h288v-834h316v834h289v-834h315v834h289v-1057h-1497z" />
<glyph unicode="&#x449;" horiz-adv-x="1751" d="M109 0v1057h288v-834h310v834h288v-834h310v834h288v-834h133v-534h-272v311h-1345z" />
<glyph unicode="&#x44a;" horiz-adv-x="1327" d="M16 834v223h602v-363h281q168 0 277.5 -90.5t109.5 -255.5q0 -169 -110 -258.5t-289 -89.5h-555v834h-316zM618 201h199q83 0 129.5 36.5t46.5 110.5q0 73 -49.5 111.5t-128.5 38.5h-197v-297z" />
<glyph unicode="&#x44b;" horiz-adv-x="1517" d="M96 0v1057h287v-363h229q168 0 277.5 -90.5t109.5 -255.5q0 -169 -110 -258.5t-289 -89.5h-504zM383 201h147q83 0 130 36.5t47 110.5q0 73 -50 111.5t-129 38.5h-145v-297zM1133 0v1057h288v-1057h-288z" />
<glyph unicode="&#x44c;" horiz-adv-x="1099" d="M104 0v1057h287v-363h281q168 0 277.5 -90.5t109.5 -255.5q0 -169 -110.5 -258.5t-289.5 -89.5h-555zM391 201h199q83 0 129.5 36.5t46.5 110.5q0 73 -49.5 111.5t-128.5 38.5h-197v-297z" />
<glyph unicode="&#x44d;" horiz-adv-x="1175" d="M66 365h282q47 -170 215 -170q103 0 165.5 67.5t76.5 192.5h-340v184h334q-20 111 -83 171t-159 60q-78 0 -131 -41t-72 -116h-288q26 174 157.5 274t335.5 100q246 0 394.5 -155t148.5 -412q0 -248 -147.5 -397.5t-391.5 -149.5q-199 0 -329.5 103t-167.5 289z" />
<glyph unicode="&#x44e;" horiz-adv-x="1712" d="M115 0v1057h288v-402h209q33 201 166.5 316.5t343.5 115.5q235 0 372.5 -152.5t137.5 -406.5q0 -256 -138 -408.5t-376 -152.5q-222 0 -357 130t-155 354h-203v-451h-288zM893 528q0 -163 58.5 -252.5t166.5 -89.5q107 0 165 90.5t58 253.5q0 159 -59.5 247.5 t-167.5 88.5q-105 0 -163 -89.5t-58 -248.5z" />
<glyph unicode="&#x44f;" horiz-adv-x="1175" d="M-12 0l350 416q-116 19 -192 105.5t-76 213.5q0 140 98.5 231t251.5 91h639v-1057h-289v391h-123l-303 -391h-356zM365 725q0 -65 38.5 -95t135.5 -30h231v248h-231q-96 0 -135 -30t-39 -93z" />
<glyph unicode="&#x451;" horiz-adv-x="1175" d="M68 522q0 246 150 405.5t380 159.5q240 0 381 -163t141 -441v-28h-758q3 -136 67 -208.5t181 -72.5q79 0 131 37t84 117h279q-49 -170 -181.5 -264.5t-314.5 -94.5q-244 0 -392 152t-148 401zM238 1221v237h272v-237h-272zM362 639h463q-10 104 -67 171t-160 67 q-97 0 -160.5 -64t-75.5 -174zM668 1221v237h272v-237h-272z" />
<glyph unicode="&#x2000;" horiz-adv-x="925" />
<glyph unicode="&#x2001;" horiz-adv-x="1851" />
<glyph unicode="&#x2002;" horiz-adv-x="925" />
<glyph unicode="&#x2003;" horiz-adv-x="1851" />
<glyph unicode="&#x2004;" horiz-adv-x="617" />
<glyph unicode="&#x2005;" horiz-adv-x="462" />
<glyph unicode="&#x2006;" horiz-adv-x="308" />
<glyph unicode="&#x2007;" horiz-adv-x="308" />
<glyph unicode="&#x2008;" horiz-adv-x="231" />
<glyph unicode="&#x2009;" horiz-adv-x="370" />
<glyph unicode="&#x200a;" horiz-adv-x="102" />
<glyph unicode="&#x2010;" horiz-adv-x="833" d="M109 428v260h616v-260h-616z" />
<glyph unicode="&#x2011;" horiz-adv-x="833" d="M109 428v260h616v-260h-616z" />
<glyph unicode="&#x2012;" horiz-adv-x="833" d="M109 428v260h616v-260h-616z" />
<glyph unicode="&#x2013;" horiz-adv-x="1241" d="M109 428v260h1024v-260h-1024z" />
<glyph unicode="&#x2014;" horiz-adv-x="2265" d="M109 428v260h2048v-260h-2048z" />
<glyph unicode="&#x202f;" horiz-adv-x="370" />
<glyph unicode="&#x205f;" horiz-adv-x="462" />
<glyph unicode="&#x2116;" horiz-adv-x="2142" d="M141 0v1421h326l498 -899v899h307v-1421h-320l-501 901v-901h-310zM1391 596q0 149 93 239.5t245 90.5q151 0 241 -90t90 -240q0 -151 -91 -241.5t-243 -90.5t-243.5 90.5t-91.5 241.5zM1430 0v201h616v-201h-616zM1593 596q0 -89 35 -134.5t98 -45.5q62 0 98 46t36 134 q0 87 -37 132.5t-99 45.5q-60 0 -95.5 -46t-35.5 -132z" />
<glyph unicode="&#xe000;" horiz-adv-x="1054" d="M0 0v1055h1055v-1055h-1055z" />
</font>
</defs>
</svg>
